<svg width="120" height="71" viewBox="0 0 120 71" fill="none" xmlns="http://www.w3.org/2000/svg">
<path d="M105.086 30.0076V28.8125C105.086 13.2732 92.5984 0.6875 77.1803 0.6875C70.6922 0.6875 64.5529 2.9375 59.7392 6.875C57.9253 8.35133 56.251 10.0388 54.8557 11.9373C51.2282 9.19508 46.9025 7.71875 42.2981 7.71875C30.7867 7.71875 21.1362 17.2107 21.1362 28.8125C9.5556 28.8125 0.20694 38.2341 0.20694 49.9062C0.20694 61.5779 9.5556 71 21.1362 71H98.1096C109.621 71 119.271 61.5076 119.271 49.9062C119.271 40.8357 113.318 32.8904 105.086 30.0076Z" fill="#75B03A"/>
</svg>
