<?xml version="1.0" encoding="utf-8"?>
<svg xmlns="http://www.w3.org/2000/svg"
	xmlns:xlink="http://www.w3.org/1999/xlink"
	width="95px" height="81px" viewBox="0 0 95 81">
<path fillRule="evenodd" d="M 11.15-0.03C 4.96-0.03-0.02 4.97-0.02 11.16-0.02 11.16-0.02 53.07-0.02 53.07-0.02 59.27 4.96 64.25 11.15 64.25 11.15 64.25 36.3 64.25 36.3 64.25 36.3 64.25 36.3 72.63 36.3 72.63 36.3 72.63 25.13 72.63 25.13 72.63 23.58 72.63 22.33 73.88 22.33 75.43 22.33 75.43 22.33 81.02 22.33 81.02 22.33 81.02 72.63 81.02 72.63 81.02 72.63 81.02 72.63 75.43 72.63 75.43 72.63 73.88 71.38 72.63 69.84 72.63 69.84 72.63 58.66 72.63 58.66 72.63 58.66 72.63 58.66 64.25 58.66 64.25 58.66 64.25 83.81 64.25 83.81 64.25 90 64.25 94.98 59.27 94.98 53.07 94.98 53.07 94.98 11.16 94.98 11.16 94.98 4.97 90-0.03 83.81-0.03 83.81-0.03 11.15-0.03 11.15-0.03 11.15-0.03 11.15-0.03 11.15-0.03ZM 13.95 11.16C 13.95 11.16 81.01 11.16 81.01 11.16 82.57 11.16 83.81 12.4 83.81 13.94 83.81 13.94 83.81 50.28 83.81 50.28 83.81 51.82 82.57 53.07 81.01 53.07 81.01 53.07 13.95 53.07 13.95 53.07 12.41 53.07 11.15 51.82 11.15 50.28 11.15 50.28 11.15 13.94 11.15 13.94 11.15 12.4 12.41 11.16 13.95 11.16 13.95 11.16 13.95 11.16 13.95 11.16Z" fill="rgb(255,255,255)"/></svg>