<?xml version="1.0" encoding="utf-8"?>
<svg xmlns="http://www.w3.org/2000/svg"
	xmlns:xlink="http://www.w3.org/1999/xlink"
	width="98px" height="90px" viewBox="0 0 98 90">
<path fillRule="evenodd" d="M 47.56 0.02C 44.05 0.02 41.18 2.46 40.53 5.78 40.53 5.78 40.35 5.78 40.35 5.78 40.35 5.78 17.28 31.74 17.28 31.74 17.28 31.74 28.82 31.74 28.82 31.74 28.82 31.74 44.77 13.81 44.77 13.81 45.63 14.17 46.57 14.44 47.56 14.44 48.56 14.44 49.48 14.17 50.36 13.81 50.36 13.81 66.3 31.74 66.3 31.74 66.3 31.74 77.85 31.74 77.85 31.74 77.85 31.74 54.77 5.78 54.77 5.78 54.77 5.78 54.58 5.78 54.58 5.78 53.95 2.46 51.08 0.02 47.56 0.02 47.56 0.02 47.56 0.02 47.56 0.02ZM 5.75 37.5C 2.56 37.5-0.02 40.08-0.02 43.28-0.02 43.28-0.02 46.16-0.02 46.16-0.02 49.2 2.31 51.6 5.3 51.84 5.3 51.84 14.4 83.64 14.4 83.64 17.28 89.42 20.17 89.42 23.04 89.42 23.04 89.42 74.96 89.42 74.96 89.42 77.85 89.42 80.71 89.42 83.6 83.64 83.6 83.64 92.71 51.84 92.71 51.84 95.68 51.6 98.02 49.2 98.02 46.16 98.02 46.16 98.02 43.28 98.02 43.28 98.02 40.08 95.46 37.5 92.26 37.5 92.26 37.5 5.75 37.5 5.75 37.5 5.75 37.5 5.75 37.5 5.75 37.5ZM 21.97 51.92C 21.97 51.92 23.41 51.92 23.41 51.92 26.61 51.92 29.76 54.33 30.43 57.33 30.43 57.33 34.49 75.27 34.49 75.27 35.17 78.28 33.1 80.76 29.9 80.76 29.9 80.76 28.45 80.76 28.45 80.76 25.26 80.76 22.1 78.28 21.42 75.27 21.42 75.27 17.37 57.33 17.37 57.33 16.69 54.33 18.78 51.92 21.97 51.92 21.97 51.92 21.97 51.92 21.97 51.92ZM 49.01 51.92C 52.2 51.92 54.77 54.5 54.77 57.7 54.77 57.7 54.77 75 54.77 75 54.77 78.2 52.2 80.76 49.01 80.76 45.81 80.76 43.23 78.2 43.23 75 43.23 75 43.23 57.7 43.23 57.7 43.23 54.5 45.81 51.92 49.01 51.92 49.01 51.92 49.01 51.92 49.01 51.92ZM 74.59 51.92C 74.59 51.92 76.04 51.92 76.04 51.92 79.24 51.92 81.31 54.33 80.63 57.33 80.63 57.33 76.58 75.27 76.58 75.27 75.9 78.28 72.75 80.76 69.55 80.76 69.55 80.76 68.1 80.76 68.1 80.76 64.91 80.76 62.84 78.28 63.51 75.27 63.51 75.27 67.57 57.33 67.57 57.33 68.24 54.33 71.39 51.92 74.59 51.92 74.59 51.92 74.59 51.92 74.59 51.92Z" fill="rgb(255,255,255)"/></svg>