<?xml version="1.0" encoding="utf-8"?>
<svg xmlns="http://www.w3.org/2000/svg"
	xmlns:xlink="http://www.w3.org/1999/xlink"
	width="186px" height="186px" viewBox="0 0 186 186">
<circle cx="93.00" cy="93.00" r="93.00" fill="rgb(79,148,241)"/><path fillRule="evenodd" d="M 133.69 64.12C 133.69 64.12 127.12 74.66 127.12 74.66 127.12 74.66 94.33 54.25 94.33 54.25 94.33 54.25 100.9 43.7 100.9 43.7 103.79 39.04 109.92 37.62 114.58 40.52 114.58 40.52 130.51 50.43 130.51 50.43 135.16 53.33 136.59 59.46 133.69 64.12ZM 94.27 127.31C 94.27 127.31 61.55 106.9 61.55 106.9 61.55 106.9 91.84 58.36 91.84 58.36 91.84 58.36 124.55 78.78 124.55 78.78 124.55 78.78 94.27 127.31 94.27 127.31ZM 98.69 70.65C 97.15 69.69 95.16 70.09 94.29 71.52 94.29 71.52 72.76 106.01 72.76 106.01 71.85 107.42 72.37 109.37 73.92 110.33 75.44 111.3 77.43 110.9 78.32 109.49 78.32 109.49 99.85 74.99 99.85 74.99 100.75 73.56 100.22 71.6 98.69 70.65ZM 110.54 78.04C 109.01 77.1 107.01 77.48 106.13 78.91 106.13 78.91 84.6 113.41 84.6 113.41 83.71 114.82 84.24 116.79 85.77 117.73 87.31 118.7 89.29 118.3 90.18 116.89 90.18 116.89 111.71 82.4 111.71 82.4 112.6 80.96 112.08 79.01 110.54 78.04ZM 76.81 139.24C 75.22 135.91 72.74 132.96 69.38 130.87 66.02 128.78 62.28 127.86 58.6 127.9 58.6 127.9 58 112.69 58 112.69 58 112.69 90.69 133.09 90.69 133.09 90.69 133.09 76.81 139.24 76.81 139.24ZM 67.59 133.74C 70.35 135.45 72.38 137.89 73.61 140.66 73.61 140.66 59.34 146.98 59.34 146.98 59.34 146.98 58.73 131.39 58.73 131.39 61.75 131.27 64.83 132.02 67.59 133.74Z" fill="rgb(255,255,255)"/></svg>