<?xml version="1.0" encoding="utf-8"?>
<svg xmlns="http://www.w3.org/2000/svg"
	xmlns:xlink="http://www.w3.org/1999/xlink"
	width="78px" height="108px" viewBox="0 0 78 108">
<path fillRule="evenodd" d="M 75.69 25.12C 75.69 25.12 69.12 35.66 69.12 35.66 69.12 35.66 36.33 15.25 36.33 15.25 36.33 15.25 42.9 4.7 42.9 4.7 45.79 0.04 51.92-1.38 56.58 1.52 56.58 1.52 72.51 11.43 72.51 11.43 77.16 14.33 78.59 20.46 75.69 25.12ZM 36.27 88.31C 36.27 88.31 3.55 67.9 3.55 67.9 3.55 67.9 33.84 19.36 33.84 19.36 33.84 19.36 66.55 39.78 66.55 39.78 66.55 39.78 36.27 88.31 36.27 88.31ZM 40.69 31.65C 39.15 30.69 37.16 31.09 36.29 32.52 36.29 32.52 14.76 67.01 14.76 67.01 13.85 68.42 14.37 70.37 15.92 71.33 17.44 72.3 19.43 71.9 20.32 70.49 20.32 70.49 41.85 35.99 41.85 35.99 42.75 34.56 42.22 32.6 40.69 31.65ZM 52.54 39.04C 51.01 38.1 49.01 38.48 48.13 39.91 48.13 39.91 26.6 74.41 26.6 74.41 25.71 75.82 26.24 77.79 27.77 78.73 29.31 79.7 31.29 79.3 32.18 77.89 32.18 77.89 53.71 43.4 53.71 43.4 54.6 41.96 54.08 40.01 52.54 39.04ZM 18.81 100.24C 17.22 96.91 14.74 93.96 11.38 91.87 8.02 89.78 4.28 88.86 0.6 88.9 0.6 88.9 0 73.69 0 73.69 0 73.69 32.69 94.09 32.69 94.09 32.69 94.09 18.81 100.24 18.81 100.24ZM 9.59 94.74C 12.35 96.45 14.38 98.89 15.61 101.66 15.61 101.66 1.34 107.98 1.34 107.98 1.34 107.98 0.73 92.39 0.73 92.39 3.75 92.27 6.83 93.02 9.59 94.74Z" fill="rgb(255,255,255)"/></svg>